<?xml version="1.0" standalone="no"?>
<!DOCTYPE svg PUBLIC "-//W3C//DTD SVG 20010904//EN"
 "http://www.w3.org/TR/2001/REC-SVG-20010904/DTD/svg10.dtd">
<svg version="1.0" xmlns="http://www.w3.org/2000/svg"
 width="1000.000000pt" height="1000.000000pt" viewBox="0 0 1000.000000 1000.000000"
 preserveAspectRatio="xMidYMid meet">
<metadata>
Created by potrace 1.14, written by Peter Selinger 2001-2017
</metadata>
<g transform="translate(0.000000,1000.000000) scale(0.100000,-0.100000)"
fill="#000000" stroke="none">
<path d="M1254 9129 c-73 -9 -121 -27 -181 -66 -92 -61 -159 -149 -189 -249
-17 -56 -18 -259 -18 -3798 -1 -2796 2 -3754 11 -3796 34 -167 192 -322 354
-347 24 -4 1727 -7 3784 -7 3640 0 3742 0 3800 19 146 46 265 168 306 315 10
36 13 806 14 3785 0 2057 -3 3760 -7 3785 -29 163 -191 328 -348 356 -53 9
-7451 12 -7526 3z"/>
</g>
</svg>
